<svg id="Layer_1" data-name="Layer 1" xmlns="http://www.w3.org/2000/svg" viewBox="0 0 66 66"><title>small-circle-icons</title><circle cx="33" cy="33" r="31.42" fill="#fff"/><circle cx="33" cy="33" r="31.42" fill="none" stroke="#091f2f" stroke-miterlimit="10" stroke-width="3"/><path d="M28.56,38.76c-.38-1.31-3.35-11.68-4-14.12l.58-.17c.17.48.36,1,.5,1.44.57,1.95,1.11,3.92,1.71,5.87v0c.84-.25,1.66-.52,2.49-.82-.52-1.65-1-3.31-1.51-5-1.77-5.81-2-6-8.08-5.92-3,0-4.1.87-5,3.73-.8,2.54-1.66,5.05-2.5,7.58h0a20.69,20.69,0,0,1,2.63,1c0-.12.08-.22.12-.35.55-1.79,1-3.61,1.56-5.41.22-.73.49-1.44.74-2.16l.5.16-4,14.25H18v2c0,2.7-.05,5.4.07,8.09H21c0-.17,0-.35,0-.51,0-2.73,0-5.47,0-8.21a14.09,14.09,0,0,1,.16-1.44h.49c.05.54.14,1.07.15,1.6,0,2.85,0,5.7,0,8.55h2.85c0-.41,0-.83,0-1.24v-9Z" fill="#091f2e" stroke="#fff" stroke-miterlimit="10" stroke-width="0.25"/><path d="M50.64,26.8V25.07l.55,0c0,.49.11,1,.12,1.46q0,3.18,0,6.34H53.9c.1-2.88.1-5.77,0-8.66a4,4,0,0,0-4.11-4.06c-1.94-.05-3.87,0-5.8,0-2.84,0-4.4,1.49-4.46,4.34s0,5.71,0,8.56h2.71c0-2.26,0-4.52,0-6.78a9.9,9.9,0,0,1,.17-1.2l.5.05V47.86c0,.28,0,.6,0,.89h3.57c0-.25,0-.5,0-.74,0-3.75,0-7.51,0-11.27,0-.52.07-1,.1-1.56l.43,0v1.73c0,3.65,0,7.3,0,11,0,.27,0,.58,0,.87h3.73c0-.28,0-.58,0-.85Z" fill="#091f2e" stroke="#fff" stroke-miterlimit="10" stroke-width="0.25"/><path d="M32.61,13.46H35.9V50.7H32.61Z" fill="#091f2e"/><circle cx="21.1" cy="16.4" r="2.94" fill="#091f2e"/><circle cx="47.1" cy="16.4" r="2.94" fill="#091f2e"/></svg>