<?xml version="1.0" encoding="utf-8"?>
<!-- Generator: Adobe Illustrator 18.1.1, SVG Export Plug-In . SVG Version: 6.00 Build 0)  -->
<svg version="1.1" id="Layer_1" xmlns="http://www.w3.org/2000/svg" xmlns:xlink="http://www.w3.org/1999/xlink" x="0px" y="0px"
	 viewBox="0 0 66 66" enable-background="new 0 0 66 66" xml:space="preserve">
<g>
	<defs>
		<circle id="SVGID_51_" cx="33" cy="33" r="31.4"/>
	</defs>
	<clipPath id="SVGID_2_">
		<use xlink:href="#SVGID_51_"  overflow="visible"/>
	</clipPath>
	
		<use xlink:href="#SVGID_51_"  overflow="visible" fill-rule="evenodd" clip-rule="evenodd" fill="none" stroke="#091F2F" stroke-width="3" stroke-miterlimit="10"/>
</g>
<g>
</g>
<g>
	<g>
		<path fill="#091F2E" stroke="#FFFFFF" stroke-width="0.25" stroke-miterlimit="10" d="M28.6,38.8c-0.4-1.3-3.3-11.7-4-14.1
			c0.2-0.1,0.4-0.1,0.6-0.2c0.2,0.5,0.4,1,0.5,1.4c0.6,2,1.1,3.9,1.7,5.9c0,0,0,0,0,0c0.8-0.2,1.7-0.5,2.5-0.8c-0.5-1.7-1-3.3-1.5-5
			c-1.8-5.8-2-5.9-8.1-5.9c-3,0-4.1,0.9-5,3.7c-0.8,2.5-1.7,5-2.5,7.6v0c0.9,0.3,1.8,0.6,2.6,1c0-0.1,0.1-0.2,0.1-0.3
			c0.5-1.8,1-3.6,1.6-5.4c0.2-0.7,0.5-1.4,0.7-2.2c0.2,0.1,0.3,0.1,0.5,0.2c-0.8,2.7-3.7,13.1-4,14.2H18c0,0.8,0,1.4,0,2.1
			c0,2.7-0.1,5.4,0.1,8.1H21c0-0.2,0-0.3,0-0.5c0-2.7,0-5.5,0-8.2c0-0.5,0.1-1,0.2-1.4c0.2,0,0.3,0,0.5,0c0.1,0.5,0.1,1.1,0.1,1.6
			c0,2.8,0,5.7,0,8.5h2.9c0-0.4,0-0.8,0-1.2c0-2.9,0-5.9,0-9H28.6z"/>
		<path fill="#091F2E" stroke="#FFFFFF" stroke-width="0.25" stroke-miterlimit="10" d="M50.6,26.8v-1.7c0.2,0,0.4,0,0.5,0
			c0,0.5,0.1,1,0.1,1.5c0,2.1,0,4.2,0,6.3h2.6c0.1-2.9,0.1-5.8,0-8.7c-0.1-2.4-1.7-4-4.1-4.1c-1.9,0-3.9,0-5.8,0
			c-2.8,0-4.4,1.5-4.5,4.3c-0.1,2.9,0,5.7,0,8.6h2.7c0-2.3,0-4.5,0-6.8c0-0.4,0.1-0.8,0.2-1.2l0.5,0.1v1.7c0,2.1,0,17.1,0,21.1
			c0,0.3,0,0.6,0,0.9h3.6c0-0.2,0-0.5,0-0.7c0-3.8,0-7.5,0-11.3c0-0.5,0.1-1,0.1-1.6c0.1,0,0.3,0,0.4,0v1.7c0,3.7,0,7.3,0,11
			c0,0.3,0,0.6,0,0.9h3.7c0-0.3,0-0.6,0-0.9C50.6,43.9,50.6,28.8,50.6,26.8z"/>
		<path fill="#091F2E" d="M32.6,13.5c1.2,0,2.2,0,3.3,0c0,12.4,0,24.8,0,37.2c-1.1,0-2.1,0-3.3,0C32.6,38.3,32.6,26,32.6,13.5z"/>
	</g>
</g>
<circle fill="#091F2E" cx="21.1" cy="16.4" r="2.9"/>
<circle fill="#091F2E" cx="47.1" cy="16.4" r="2.9"/>
<line fill="none" x1="49" y1="34" x2="49" y2="49"/>
<line fill="none" x1="45" y1="34" x2="45" y2="43"/>
</svg>
