<?xml version="1.0" encoding="utf-8"?>
<!-- Generator: Adobe Illustrator 18.1.1, SVG Export Plug-In . SVG Version: 6.00 Build 0)  -->
<svg version="1.1" id="Layer_1" xmlns="http://www.w3.org/2000/svg" xmlns:xlink="http://www.w3.org/1999/xlink" x="0px" y="0px"
	 viewBox="0 0 276 137" enable-background="new 0 0 276 137" xml:space="preserve">
<g>
	<defs>
		<path id="SVGID_1085_" d="M677.5-279.8H676v1.5v81v1.5h1.5h105h1.5v-1.5v-81v-1.5h-1.5H677.5z M677.5-276.8h105l-1.5-1.5v81
			l1.5-1.5h-105l1.5,1.5v-81L677.5-276.8z M656-299.8h148v124H656V-299.8z"/>
	</defs>
	<clipPath id="SVGID_2_">
		<use xlink:href="#SVGID_1085_"  overflow="visible"/>
	</clipPath>
	<g clip-path="url(#SVGID_2_)">
		<defs>
			<rect id="SVGID_1087_" x="677.5" y="-278.3" width="105" height="81"/>
		</defs>
		<clipPath id="SVGID_4_">
			<use xlink:href="#SVGID_1087_"  overflow="visible"/>
		</clipPath>
		<g clip-path="url(#SVGID_4_)">
			<defs>
				<rect id="SVGID_1089_" x="-203.5" y="-777.3" width="1121" height="1030"/>
			</defs>
			<clipPath id="SVGID_6_">
				<use xlink:href="#SVGID_1089_"  overflow="visible"/>
			</clipPath>
		</g>
	</g>
</g>
<g>
	<defs>
		<rect id="SVGID_1091_" x="677.5" y="-278.3" width="105" height="81"/>
	</defs>
	<clipPath id="SVGID_8_">
		<use xlink:href="#SVGID_1091_"  overflow="visible"/>
	</clipPath>
	<g clip-path="url(#SVGID_8_)">
		<defs>
			<rect id="SVGID_1093_" x="-203.5" y="-777.3" width="1121" height="1030"/>
		</defs>
		<clipPath id="SVGID_10_">
			<use xlink:href="#SVGID_1093_"  overflow="visible"/>
		</clipPath>
	</g>
</g>
<g>
	<defs>
		<path id="SVGID_1095_" d="M671.5-262.8h-2.2l0.9-2.1l9.1-22l0.4-0.9h1h98.9h1l0.4,0.9l9.1,22l0.9,2.1h-2.2H671.5z M671.5-265.8
			h117l-1.4,2.1l-9.1-22l1.4,0.9h-98.9l1.4-0.9l-9.1,22L671.5-265.8z M649.3-242.8h161.5v-65H649.3V-242.8z"/>
	</defs>
	<clipPath id="SVGID_12_">
		<use xlink:href="#SVGID_1095_"  overflow="visible"/>
	</clipPath>
	<g clip-path="url(#SVGID_12_)">
		<defs>
			<polygon id="SVGID_1097_" points="671.5,-264.3 788.5,-264.3 779.4,-286.3 680.6,-286.3 			"/>
		</defs>
		<clipPath id="SVGID_14_">
			<use xlink:href="#SVGID_1097_"  overflow="visible"/>
		</clipPath>
		<g clip-path="url(#SVGID_14_)">
			<defs>
				<rect id="SVGID_1099_" x="-203.5" y="-777.3" width="1121" height="1030"/>
			</defs>
			<clipPath id="SVGID_16_">
				<use xlink:href="#SVGID_1099_"  overflow="visible"/>
			</clipPath>
		</g>
	</g>
</g>
<g>
	<defs>
		<polygon id="SVGID_1101_" points="671.5,-264.3 788.5,-264.3 779.4,-286.3 680.6,-286.3 		"/>
	</defs>
	<clipPath id="SVGID_18_">
		<use xlink:href="#SVGID_1101_"  overflow="visible"/>
	</clipPath>
	<g clip-path="url(#SVGID_18_)">
		<defs>
			<rect id="SVGID_1103_" x="-203.5" y="-777.3" width="1121" height="1030"/>
		</defs>
		<clipPath id="SVGID_20_">
			<use xlink:href="#SVGID_1103_"  overflow="visible"/>
		</clipPath>
	</g>
</g>
<g>
	<defs>
		<path id="SVGID_1105_" d="M756.5-295.8H755v1.5v16v1.5h1.5h12h1.5v-1.5v-16v-1.5h-1.5H756.5z M756.5-292.8h12l-1.5-1.5v16l1.5-1.5
			h-12l1.5,1.5v-16L756.5-292.8z M735-315.8h55v59h-55V-315.8z"/>
	</defs>
	<clipPath id="SVGID_22_">
		<use xlink:href="#SVGID_1105_"  overflow="visible"/>
	</clipPath>
	<g clip-path="url(#SVGID_22_)">
		<defs>
			<rect id="SVGID_1107_" x="756.5" y="-294.3" width="12" height="16"/>
		</defs>
		<clipPath id="SVGID_24_">
			<use xlink:href="#SVGID_1107_"  overflow="visible"/>
		</clipPath>
		<g clip-path="url(#SVGID_24_)">
			<defs>
				<rect id="SVGID_1109_" x="-203.5" y="-777.3" width="1121" height="1030"/>
			</defs>
			<clipPath id="SVGID_26_">
				<use xlink:href="#SVGID_1109_"  overflow="visible"/>
			</clipPath>
		</g>
	</g>
</g>
<g>
	<defs>
		<rect id="SVGID_1111_" x="756.5" y="-294.3" width="12" height="16"/>
	</defs>
	<clipPath id="SVGID_28_">
		<use xlink:href="#SVGID_1111_"  overflow="visible"/>
	</clipPath>
	<g clip-path="url(#SVGID_28_)">
		<defs>
			<rect id="SVGID_1113_" x="-203.5" y="-777.3" width="1121" height="1030"/>
		</defs>
		<clipPath id="SVGID_30_">
			<use xlink:href="#SVGID_1113_"  overflow="visible"/>
		</clipPath>
	</g>
</g>
<g>
	<defs>
		<path id="SVGID_1115_" d="M690.5-229.8H689v1.5v31v1.5h1.5h21h1.5v-1.5v-31v-1.5h-1.5H690.5z M690.5-226.8h21l-1.5-1.5v31l1.5-1.5
			h-21l1.5,1.5v-31L690.5-226.8z M669-249.8h64v74h-64V-249.8z"/>
	</defs>
	<clipPath id="SVGID_32_">
		<use xlink:href="#SVGID_1115_"  overflow="visible"/>
	</clipPath>
	<g clip-path="url(#SVGID_32_)">
		<defs>
			<rect id="SVGID_1117_" x="690.5" y="-228.3" width="21" height="31"/>
		</defs>
		<clipPath id="SVGID_34_">
			<use xlink:href="#SVGID_1117_"  overflow="visible"/>
		</clipPath>
		<g clip-path="url(#SVGID_34_)">
			<defs>
				<rect id="SVGID_1119_" x="-203.5" y="-777.3" width="1121" height="1030"/>
			</defs>
			<clipPath id="SVGID_36_">
				<use xlink:href="#SVGID_1119_"  overflow="visible"/>
			</clipPath>
		</g>
	</g>
</g>
<g>
	<defs>
		<rect id="SVGID_1121_" x="690.5" y="-228.3" width="21" height="31"/>
	</defs>
	<clipPath id="SVGID_38_">
		<use xlink:href="#SVGID_1121_"  overflow="visible"/>
	</clipPath>
	<g clip-path="url(#SVGID_38_)">
		<defs>
			<rect id="SVGID_1123_" x="-203.5" y="-777.3" width="1121" height="1030"/>
		</defs>
		<clipPath id="SVGID_40_">
			<use xlink:href="#SVGID_1123_"  overflow="visible"/>
		</clipPath>
	</g>
</g>
<g>
	<defs>
		<path id="SVGID_1125_" d="M691.5-257.8H690v1.5v19v1.5h1.5h19h1.5v-1.5v-19v-1.5h-1.5H691.5z M691.5-254.8h19l-1.5-1.5v19l1.5-1.5
			h-19l1.5,1.5v-19L691.5-254.8z M670-277.8h62v62h-62V-277.8z"/>
	</defs>
	<clipPath id="SVGID_42_">
		<use xlink:href="#SVGID_1125_"  overflow="visible"/>
	</clipPath>
	<g clip-path="url(#SVGID_42_)">
		<defs>
			<rect id="SVGID_1127_" x="691.5" y="-256.3" width="19" height="19"/>
		</defs>
		<clipPath id="SVGID_44_">
			<use xlink:href="#SVGID_1127_"  overflow="visible"/>
		</clipPath>
		<g clip-path="url(#SVGID_44_)">
			<defs>
				<rect id="SVGID_1129_" x="-203.5" y="-777.3" width="1121" height="1030"/>
			</defs>
			<clipPath id="SVGID_46_">
				<use xlink:href="#SVGID_1129_"  overflow="visible"/>
			</clipPath>
		</g>
	</g>
</g>
<g>
	<defs>
		<rect id="SVGID_1131_" x="691.5" y="-256.3" width="19" height="19"/>
	</defs>
	<clipPath id="SVGID_48_">
		<use xlink:href="#SVGID_1131_"  overflow="visible"/>
	</clipPath>
	<g clip-path="url(#SVGID_48_)">
		<defs>
			<rect id="SVGID_1133_" x="-203.5" y="-777.3" width="1121" height="1030"/>
		</defs>
		<clipPath id="SVGID_50_">
			<use xlink:href="#SVGID_1133_"  overflow="visible"/>
		</clipPath>
	</g>
</g>
<g>
	<defs>
		<path id="SVGID_1135_" d="M696.5-252.8H695v1.5v9v1.5h1.5h9h1.5v-1.5v-9v-1.5h-1.5H696.5z M696.5-249.8h9l-1.5-1.5v9l1.5-1.5h-9
			l1.5,1.5v-9L696.5-249.8z M675-272.8h52v52h-52V-272.8z"/>
	</defs>
	<clipPath id="SVGID_52_">
		<use xlink:href="#SVGID_1135_"  overflow="visible"/>
	</clipPath>
	<g clip-path="url(#SVGID_52_)">
		<defs>
			<rect id="SVGID_1137_" x="696.5" y="-251.3" width="9" height="9"/>
		</defs>
		<clipPath id="SVGID_54_">
			<use xlink:href="#SVGID_1137_"  overflow="visible"/>
		</clipPath>
		<g clip-path="url(#SVGID_54_)">
			<defs>
				<rect id="SVGID_1139_" x="-203.5" y="-777.3" width="1121" height="1030"/>
			</defs>
			<clipPath id="SVGID_56_">
				<use xlink:href="#SVGID_1139_"  overflow="visible"/>
			</clipPath>
		</g>
	</g>
</g>
<g>
	<defs>
		<rect id="SVGID_1141_" x="696.5" y="-251.3" width="9" height="9"/>
	</defs>
	<clipPath id="SVGID_58_">
		<use xlink:href="#SVGID_1141_"  overflow="visible"/>
	</clipPath>
	<g clip-path="url(#SVGID_58_)">
		<defs>
			<rect id="SVGID_1143_" x="-203.5" y="-777.3" width="1121" height="1030"/>
		</defs>
		<clipPath id="SVGID_60_">
			<use xlink:href="#SVGID_1143_"  overflow="visible"/>
		</clipPath>
	</g>
</g>
<g>
	<defs>
		<path id="SVGID_1145_" d="M721.5-257.8H720v1.5v19v1.5h1.5h19h1.5v-1.5v-19v-1.5h-1.5H721.5z M721.5-254.8h19l-1.5-1.5v19l1.5-1.5
			h-19l1.5,1.5v-19L721.5-254.8z M700-277.8h62v62h-62V-277.8z"/>
	</defs>
	<clipPath id="SVGID_62_">
		<use xlink:href="#SVGID_1145_"  overflow="visible"/>
	</clipPath>
	<g clip-path="url(#SVGID_62_)">
		<defs>
			<rect id="SVGID_1147_" x="721.5" y="-256.3" width="19" height="19"/>
		</defs>
		<clipPath id="SVGID_64_">
			<use xlink:href="#SVGID_1147_"  overflow="visible"/>
		</clipPath>
		<g clip-path="url(#SVGID_64_)">
			<defs>
				<rect id="SVGID_1149_" x="-203.5" y="-777.3" width="1121" height="1030"/>
			</defs>
			<clipPath id="SVGID_66_">
				<use xlink:href="#SVGID_1149_"  overflow="visible"/>
			</clipPath>
		</g>
	</g>
</g>
<g>
	<defs>
		<rect id="SVGID_1151_" x="721.5" y="-256.3" width="19" height="19"/>
	</defs>
	<clipPath id="SVGID_68_">
		<use xlink:href="#SVGID_1151_"  overflow="visible"/>
	</clipPath>
	<g clip-path="url(#SVGID_68_)">
		<defs>
			<rect id="SVGID_1153_" x="-203.5" y="-777.3" width="1121" height="1030"/>
		</defs>
		<clipPath id="SVGID_70_">
			<use xlink:href="#SVGID_1153_"  overflow="visible"/>
		</clipPath>
	</g>
</g>
<g>
	<defs>
		<path id="SVGID_1155_" d="M750.5-257.8H749v1.5v19v1.5h1.5h19h1.5v-1.5v-19v-1.5h-1.5H750.5z M750.5-254.8h19l-1.5-1.5v19l1.5-1.5
			h-19l1.5,1.5v-19L750.5-254.8z M729-277.8h62v62h-62V-277.8z"/>
	</defs>
	<clipPath id="SVGID_72_">
		<use xlink:href="#SVGID_1155_"  overflow="visible"/>
	</clipPath>
	<g clip-path="url(#SVGID_72_)">
		<defs>
			<rect id="SVGID_1157_" x="750.5" y="-256.3" width="19" height="19"/>
		</defs>
		<clipPath id="SVGID_74_">
			<use xlink:href="#SVGID_1157_"  overflow="visible"/>
		</clipPath>
		<g clip-path="url(#SVGID_74_)">
			<defs>
				<rect id="SVGID_1159_" x="-203.5" y="-777.3" width="1121" height="1030"/>
			</defs>
			<clipPath id="SVGID_76_">
				<use xlink:href="#SVGID_1159_"  overflow="visible"/>
			</clipPath>
		</g>
	</g>
</g>
<g>
	<defs>
		<rect id="SVGID_1161_" x="750.5" y="-256.3" width="19" height="19"/>
	</defs>
	<clipPath id="SVGID_78_">
		<use xlink:href="#SVGID_1161_"  overflow="visible"/>
	</clipPath>
	<g clip-path="url(#SVGID_78_)">
		<defs>
			<rect id="SVGID_1163_" x="-203.5" y="-777.3" width="1121" height="1030"/>
		</defs>
		<clipPath id="SVGID_80_">
			<use xlink:href="#SVGID_1163_"  overflow="visible"/>
		</clipPath>
	</g>
</g>
<g>
	<defs>
		<path id="SVGID_1165_" d="M721.5-229.8H720v1.5v19v1.5h1.5h19h1.5v-1.5v-19v-1.5h-1.5H721.5z M721.5-226.8h19l-1.5-1.5v19l1.5-1.5
			h-19l1.5,1.5v-19L721.5-226.8z M700-249.8h62v62h-62V-249.8z"/>
	</defs>
	<clipPath id="SVGID_82_">
		<use xlink:href="#SVGID_1165_"  overflow="visible"/>
	</clipPath>
	<g clip-path="url(#SVGID_82_)">
		<defs>
			<rect id="SVGID_1167_" x="721.5" y="-228.3" width="19" height="19"/>
		</defs>
		<clipPath id="SVGID_84_">
			<use xlink:href="#SVGID_1167_"  overflow="visible"/>
		</clipPath>
		<g clip-path="url(#SVGID_84_)">
			<defs>
				<rect id="SVGID_1169_" x="-203.5" y="-777.3" width="1121" height="1030"/>
			</defs>
			<clipPath id="SVGID_86_">
				<use xlink:href="#SVGID_1169_"  overflow="visible"/>
			</clipPath>
		</g>
	</g>
</g>
<g>
	<defs>
		<rect id="SVGID_1171_" x="721.5" y="-228.3" width="19" height="19"/>
	</defs>
	<clipPath id="SVGID_88_">
		<use xlink:href="#SVGID_1171_"  overflow="visible"/>
	</clipPath>
	<g clip-path="url(#SVGID_88_)">
		<defs>
			<rect id="SVGID_1173_" x="-203.5" y="-777.3" width="1121" height="1030"/>
		</defs>
		<clipPath id="SVGID_90_">
			<use xlink:href="#SVGID_1173_"  overflow="visible"/>
		</clipPath>
	</g>
</g>
<g>
	<defs>
		<path id="SVGID_1175_" d="M750.5-229.8H749v1.5v19v1.5h1.5h19h1.5v-1.5v-19v-1.5h-1.5H750.5z M750.5-226.8h19l-1.5-1.5v19l1.5-1.5
			h-19l1.5,1.5v-19L750.5-226.8z M729-249.8h62v62h-62V-249.8z"/>
	</defs>
	<clipPath id="SVGID_92_">
		<use xlink:href="#SVGID_1175_"  overflow="visible"/>
	</clipPath>
	<g clip-path="url(#SVGID_92_)">
		<defs>
			<rect id="SVGID_1177_" x="750.5" y="-228.3" width="19" height="19"/>
		</defs>
		<clipPath id="SVGID_94_">
			<use xlink:href="#SVGID_1177_"  overflow="visible"/>
		</clipPath>
		<g clip-path="url(#SVGID_94_)">
			<defs>
				<rect id="SVGID_1179_" x="-203.5" y="-777.3" width="1121" height="1030"/>
			</defs>
			<clipPath id="SVGID_96_">
				<use xlink:href="#SVGID_1179_"  overflow="visible"/>
			</clipPath>
		</g>
	</g>
</g>
<g>
	<defs>
		<rect id="SVGID_1181_" x="750.5" y="-228.3" width="19" height="19"/>
	</defs>
	<clipPath id="SVGID_98_">
		<use xlink:href="#SVGID_1181_"  overflow="visible"/>
	</clipPath>
	<g clip-path="url(#SVGID_98_)">
		<defs>
			<rect id="SVGID_1183_" x="-203.5" y="-777.3" width="1121" height="1030"/>
		</defs>
		<clipPath id="SVGID_100_">
			<use xlink:href="#SVGID_1183_"  overflow="visible"/>
		</clipPath>
	</g>
</g>
<g>
	<defs>
		<path id="SVGID_1185_" d="M726.5-252.8H725v1.5v9v1.5h1.5h9h1.5v-1.5v-9v-1.5h-1.5H726.5z M726.5-249.8h9l-1.5-1.5v9l1.5-1.5h-9
			l1.5,1.5v-9L726.5-249.8z M705-272.8h52v52h-52V-272.8z"/>
	</defs>
	<clipPath id="SVGID_102_">
		<use xlink:href="#SVGID_1185_"  overflow="visible"/>
	</clipPath>
	<g clip-path="url(#SVGID_102_)">
		<defs>
			<rect id="SVGID_1187_" x="726.5" y="-251.3" width="9" height="9"/>
		</defs>
		<clipPath id="SVGID_104_">
			<use xlink:href="#SVGID_1187_"  overflow="visible"/>
		</clipPath>
		<g clip-path="url(#SVGID_104_)">
			<defs>
				<rect id="SVGID_1189_" x="-203.5" y="-777.3" width="1121" height="1030"/>
			</defs>
			<clipPath id="SVGID_106_">
				<use xlink:href="#SVGID_1189_"  overflow="visible"/>
			</clipPath>
		</g>
	</g>
</g>
<g>
	<defs>
		<rect id="SVGID_1191_" x="726.5" y="-251.3" width="9" height="9"/>
	</defs>
	<clipPath id="SVGID_108_">
		<use xlink:href="#SVGID_1191_"  overflow="visible"/>
	</clipPath>
	<g clip-path="url(#SVGID_108_)">
		<defs>
			<rect id="SVGID_1193_" x="-203.5" y="-777.3" width="1121" height="1030"/>
		</defs>
		<clipPath id="SVGID_110_">
			<use xlink:href="#SVGID_1193_"  overflow="visible"/>
		</clipPath>
	</g>
</g>
<g>
	<defs>
		<path id="SVGID_1195_" d="M755.5-252.8H754v1.5v9v1.5h1.5h9h1.5v-1.5v-9v-1.5h-1.5H755.5z M755.5-249.8h9l-1.5-1.5v9l1.5-1.5h-9
			l1.5,1.5v-9L755.5-249.8z M734-272.8h52v52h-52V-272.8z"/>
	</defs>
	<clipPath id="SVGID_112_">
		<use xlink:href="#SVGID_1195_"  overflow="visible"/>
	</clipPath>
	<g clip-path="url(#SVGID_112_)">
		<defs>
			<rect id="SVGID_1197_" x="755.5" y="-251.3" width="9" height="9"/>
		</defs>
		<clipPath id="SVGID_114_">
			<use xlink:href="#SVGID_1197_"  overflow="visible"/>
		</clipPath>
		<g clip-path="url(#SVGID_114_)">
			<defs>
				<rect id="SVGID_1199_" x="-203.5" y="-777.3" width="1121" height="1030"/>
			</defs>
			<clipPath id="SVGID_116_">
				<use xlink:href="#SVGID_1199_"  overflow="visible"/>
			</clipPath>
		</g>
	</g>
</g>
<g>
	<defs>
		<rect id="SVGID_1201_" x="755.5" y="-251.3" width="9" height="9"/>
	</defs>
	<clipPath id="SVGID_118_">
		<use xlink:href="#SVGID_1201_"  overflow="visible"/>
	</clipPath>
	<g clip-path="url(#SVGID_118_)">
		<defs>
			<rect id="SVGID_1203_" x="-203.5" y="-777.3" width="1121" height="1030"/>
		</defs>
		<clipPath id="SVGID_120_">
			<use xlink:href="#SVGID_1203_"  overflow="visible"/>
		</clipPath>
	</g>
</g>
<g>
	<defs>
		<path id="SVGID_1205_" d="M726.5-224.8H725v1.5v9v1.5h1.5h9h1.5v-1.5v-9v-1.5h-1.5H726.5z M726.5-221.8h9l-1.5-1.5v9l1.5-1.5h-9
			l1.5,1.5v-9L726.5-221.8z M705-244.8h52v52h-52V-244.8z"/>
	</defs>
	<clipPath id="SVGID_122_">
		<use xlink:href="#SVGID_1205_"  overflow="visible"/>
	</clipPath>
	<g clip-path="url(#SVGID_122_)">
		<defs>
			<rect id="SVGID_1207_" x="726.5" y="-223.3" width="9" height="9"/>
		</defs>
		<clipPath id="SVGID_124_">
			<use xlink:href="#SVGID_1207_"  overflow="visible"/>
		</clipPath>
		<g clip-path="url(#SVGID_124_)">
			<defs>
				<rect id="SVGID_1209_" x="-203.5" y="-777.3" width="1121" height="1030"/>
			</defs>
			<clipPath id="SVGID_126_">
				<use xlink:href="#SVGID_1209_"  overflow="visible"/>
			</clipPath>
		</g>
	</g>
</g>
<g>
	<defs>
		<rect id="SVGID_1211_" x="726.5" y="-223.3" width="9" height="9"/>
	</defs>
	<clipPath id="SVGID_128_">
		<use xlink:href="#SVGID_1211_"  overflow="visible"/>
	</clipPath>
	<g clip-path="url(#SVGID_128_)">
		<defs>
			<rect id="SVGID_1213_" x="-203.5" y="-777.3" width="1121" height="1030"/>
		</defs>
		<clipPath id="SVGID_130_">
			<use xlink:href="#SVGID_1213_"  overflow="visible"/>
		</clipPath>
	</g>
</g>
<g>
	<defs>
		<path id="SVGID_1215_" d="M755.5-224.8H754v1.5v9v1.5h1.5h9h1.5v-1.5v-9v-1.5h-1.5H755.5z M755.5-221.8h9l-1.5-1.5v9l1.5-1.5h-9
			l1.5,1.5v-9L755.5-221.8z M734-244.8h52v52h-52V-244.8z"/>
	</defs>
	<clipPath id="SVGID_132_">
		<use xlink:href="#SVGID_1215_"  overflow="visible"/>
	</clipPath>
	<g clip-path="url(#SVGID_132_)">
		<defs>
			<rect id="SVGID_1217_" x="755.5" y="-223.3" width="9" height="9"/>
		</defs>
		<clipPath id="SVGID_134_">
			<use xlink:href="#SVGID_1217_"  overflow="visible"/>
		</clipPath>
		<g clip-path="url(#SVGID_134_)">
			<defs>
				<rect id="SVGID_1219_" x="-203.5" y="-777.3" width="1121" height="1030"/>
			</defs>
			<clipPath id="SVGID_136_">
				<use xlink:href="#SVGID_1219_"  overflow="visible"/>
			</clipPath>
		</g>
	</g>
</g>
<g>
	<defs>
		<rect id="SVGID_1221_" x="755.5" y="-223.3" width="9" height="9"/>
	</defs>
	<clipPath id="SVGID_138_">
		<use xlink:href="#SVGID_1221_"  overflow="visible"/>
	</clipPath>
	<g clip-path="url(#SVGID_138_)">
		<defs>
			<rect id="SVGID_1223_" x="-203.5" y="-777.3" width="1121" height="1030"/>
		</defs>
		<clipPath id="SVGID_140_">
			<use xlink:href="#SVGID_1223_"  overflow="visible"/>
		</clipPath>
	</g>
</g>
<path fill="#0F1F2D" stroke="#FFFFFF" stroke-width="3" stroke-miterlimit="10" d="M167.8,38.4c-1.7-4.4,1.8-10,1.8-10
	s6.4,1.6,8.1,6.1s-1.8,10-1.8,10S169.5,42.8,167.8,38.4z"/>
<path fill="#0F1F2D" stroke="#FFFFFF" stroke-width="3" stroke-miterlimit="10" d="M111.2,29.8c2.5-4.1,9.1-4.6,9.1-4.6
	s2.5,6.1,0.1,10.2c-2.5,4.1-9.1,4.6-9.1,4.6S108.8,33.9,111.2,29.8z"/>
<g>
	<path fill="#FFFFFF" stroke="#0F1F2D" stroke-width="3" stroke-miterlimit="10" d="M178.4,49.9c1.5-2.8,0.5-6.3-2.3-7.8
		c-2.8-1.5-6.3-0.5-7.8,2.3c-2.9,5.3-9.2,6.9-11.6,11.4c-2.8,5.2-0.8,11.6,4.3,14.4s11.6,0.8,14.4-4.3
		C177.7,61.4,175.4,55.4,178.4,49.9z"/>
	<path fill="#FFFFFF" stroke="#0F1F2D" stroke-width="3" stroke-miterlimit="10" d="M183.6,34.1c-5.6-1.2-5.6,3.9-8.1,8.5"/>
</g>
<circle fill="#FFFFFF" stroke="#0F1F2D" stroke-width="3" stroke-miterlimit="10" cx="156.6" cy="61.8" r="13"/>
<g>
	<path fill="#FFFFFF" stroke="#0F1F2D" stroke-width="3" stroke-miterlimit="10" d="M153.7,44.5c0.7-3.1-1.3-6.2-4.4-6.8
		c-3.1-0.7-6.2,1.3-6.8,4.4c-1.3,5.9-6.9,9.3-8,14.2c-1.2,5.7,2.4,11.4,8.2,12.6c5.7,1.2,11.4-2.4,12.6-8.2
		C156.2,55.8,152.4,50.6,153.7,44.5z"/>
	<path fill="#FFFFFF" stroke="#0F1F2D" stroke-width="3" stroke-miterlimit="10" d="M154.3,28.6c-5.7,0.4-4.3,4.7-5.4,9.7"/>
</g>
<g>
	<path fill="#FFFFFF" stroke="#0F1F2D" stroke-width="3" stroke-miterlimit="10" d="M118.7,39.7c-1.4-2.8-4.9-4-7.7-2.5
		c-2.8,1.4-4,4.9-2.5,7.7c2.7,5.4,0.4,11.6,2.7,16c2.7,5.2,9,7.3,14.3,4.6s7.3-9,4.6-14.3C127.8,46.8,121.5,45.2,118.7,39.7z"/>
	<path fill="#FFFFFF" stroke="#0F1F2D" stroke-width="3" stroke-miterlimit="10" d="M111,27.3c-4.2,3.9-2.2,6,0.1,10.6"/>
</g>
<circle fill="#FFFFFF" stroke="#0F1F2D" stroke-width="3" stroke-miterlimit="10" cx="104.9" cy="62" r="13.2"/>
<rect x="87.2" y="62.7" fill="#FFFFFF" stroke="#0F1F2D" stroke-width="3" stroke-miterlimit="10" width="95.3" height="7.2"/>
<polygon fill="#FFFFFF" stroke="#0F1F2D" stroke-width="3" stroke-miterlimit="10" points="169.7,119.8 100.1,119.8 91.3,70.1 
	178.5,70.1 "/>
<rect x="109" y="78.7" fill="#FFFFFF" stroke="#0F1F2D" stroke-width="3" stroke-miterlimit="10" width="8.6" height="33.5"/>
<rect x="151.3" y="78.7" fill="#FFFFFF" stroke="#0F1F2D" stroke-width="3" stroke-miterlimit="10" width="8.6" height="33.5"/>
<rect x="130" y="78.7" fill="#FFFFFF" stroke="#0F1F2D" stroke-width="3" stroke-miterlimit="10" width="8.6" height="33.5"/>
<rect x="130" y="21.8" fill="#FFFFFF" stroke="#0F1F2D" stroke-width="3" stroke-miterlimit="10" width="8.6" height="48.3"/>
</svg>
