<svg id="Layer_1" data-name="Layer 1" xmlns="http://www.w3.org/2000/svg" xmlns:xlink="http://www.w3.org/1999/xlink" viewBox="0 0 276 137"><defs><style>.cls-1,.cls-2,.cls-3{fill:none;}.cls-2{clip-rule:evenodd;}.cls-3{fill-rule:evenodd;}.cls-4{clip-path:url(#clip-path);}.cls-5{clip-path:url(#clip-path-2);}.cls-6{clip-path:url(#clip-path-3);}.cls-7{clip-path:url(#clip-path-4);}.cls-8{clip-path:url(#clip-path-5);}.cls-9{clip-path:url(#clip-path-6);}.cls-10{clip-path:url(#clip-path-8);}.cls-11{clip-path:url(#clip-path-9);}.cls-12{clip-path:url(#clip-path-11);}.cls-13{clip-path:url(#clip-path-12);}.cls-14{clip-path:url(#clip-path-14);}.cls-15{clip-path:url(#clip-path-15);}.cls-16{clip-path:url(#clip-path-17);}.cls-17{clip-path:url(#clip-path-18);}.cls-18{clip-path:url(#clip-path-20);}.cls-19{clip-path:url(#clip-path-21);}.cls-20{clip-path:url(#clip-path-23);}.cls-21{clip-path:url(#clip-path-24);}.cls-22{clip-path:url(#clip-path-26);}.cls-23{clip-path:url(#clip-path-27);}.cls-24{clip-path:url(#clip-path-29);}.cls-25{clip-path:url(#clip-path-30);}.cls-26{clip-path:url(#clip-path-32);}.cls-27{clip-path:url(#clip-path-33);}.cls-28{clip-path:url(#clip-path-35);}.cls-29{clip-path:url(#clip-path-36);}.cls-30{clip-path:url(#clip-path-38);}.cls-31{clip-path:url(#clip-path-39);}.cls-32{clip-path:url(#clip-path-41);}.cls-33{clip-path:url(#clip-path-42);}.cls-34{clip-path:url(#clip-path-44);}.cls-35{clip-path:url(#clip-path-45);}.cls-36,.cls-38{fill:#fff;}.cls-37{fill:#0c1f2e;}.cls-38{stroke:#0c1f2e;stroke-miterlimit:10;stroke-width:3px;}</style><clipPath id="clip-path"><circle class="cls-1" cx="138" cy="-89.5" r="50.5"/></clipPath><clipPath id="clip-path-2"><circle class="cls-1" cx="138" cy="-89.5" r="43.5"/></clipPath><clipPath id="clip-path-3"><circle class="cls-1" cx="428.78" cy="-89.5" r="50.5"/></clipPath><clipPath id="clip-path-4"><circle class="cls-1" cx="428.78" cy="-89.5" r="43.5"/></clipPath><clipPath id="clip-path-5"><path class="cls-2" d="M383.67,186.49h-1.5v84h108v-84H383.67Zm0,3h105l-1.5-1.5v81l1.5-1.5h-105l1.5,1.5V188Zm-21.5-23h148v124h-148Z"/></clipPath><clipPath id="clip-path-6"><rect class="cls-1" x="383.67" y="187.99" width="105" height="81"/></clipPath><clipPath id="clip-path-8"><path class="cls-2" d="M377.67,203.49h-2.24l.85-2.07,9.07-22,.38-.93H486.6l.38.93,9.07,22,.85,2.07H377.67Zm0-3h117l-1.39,2.07-9.07-22,1.39.93H386.74l1.39-.93-9.07,22Zm-22.24,23H516.91v-65H355.43Z"/></clipPath><clipPath id="clip-path-9"><polygon class="cls-2" points="377.67 201.99 494.67 201.99 485.6 179.99 386.74 179.99 377.67 201.99"/></clipPath><clipPath id="clip-path-11"><path class="cls-2" d="M462.67,170.49h-1.5v19h15v-19h-13.5Zm0,3h12l-1.5-1.5v16l1.5-1.5h-12l1.5,1.5V172Zm-21.5-23h55v59h-55Z"/></clipPath><clipPath id="clip-path-12"><rect class="cls-1" x="462.67" y="171.99" width="12" height="16"/></clipPath><clipPath id="clip-path-14"><path class="cls-2" d="M396.67,236.49h-1.5v34h24v-34h-22.5Zm0,3h21l-1.5-1.5v31l1.5-1.5h-21l1.5,1.5V238Zm-21.5-23h64v74h-64Z"/></clipPath><clipPath id="clip-path-15"><rect class="cls-1" x="396.67" y="237.99" width="21" height="31"/></clipPath><clipPath id="clip-path-17"><path class="cls-2" d="M397.67,208.49h-1.5v22h22v-22h-20.5Zm0,3h19l-1.5-1.5v19l1.5-1.5h-19l1.5,1.5V210Zm-21.5-23h62v62h-62Z"/></clipPath><clipPath id="clip-path-18"><rect class="cls-1" x="397.67" y="209.99" width="19" height="19"/></clipPath><clipPath id="clip-path-20"><path class="cls-2" d="M402.67,213.49h-1.5v12h12v-12h-10.5Zm0,3h9l-1.5-1.5v9l1.5-1.5h-9l1.5,1.5v-9Zm-21.5-23h52v52h-52Z"/></clipPath><clipPath id="clip-path-21"><rect class="cls-1" x="402.67" y="214.99" width="9" height="9"/></clipPath><clipPath id="clip-path-23"><path class="cls-2" d="M427.67,208.49h-1.5v22h22v-22h-20.5Zm0,3h19l-1.5-1.5v19l1.5-1.5h-19l1.5,1.5V210Zm-21.5-23h62v62h-62Z"/></clipPath><clipPath id="clip-path-24"><rect class="cls-1" x="427.67" y="209.99" width="19" height="19"/></clipPath><clipPath id="clip-path-26"><path class="cls-2" d="M456.67,208.49h-1.5v22h22v-22h-20.5Zm0,3h19l-1.5-1.5v19l1.5-1.5h-19l1.5,1.5V210Zm-21.5-23h62v62h-62Z"/></clipPath><clipPath id="clip-path-27"><rect class="cls-1" x="456.67" y="209.99" width="19" height="19"/></clipPath><clipPath id="clip-path-29"><path class="cls-2" d="M427.67,236.49h-1.5v22h22v-22h-20.5Zm0,3h19l-1.5-1.5v19l1.5-1.5h-19l1.5,1.5V238Zm-21.5-23h62v62h-62Z"/></clipPath><clipPath id="clip-path-30"><rect class="cls-1" x="427.67" y="237.99" width="19" height="19"/></clipPath><clipPath id="clip-path-32"><path class="cls-2" d="M456.67,236.49h-1.5v22h22v-22h-20.5Zm0,3h19l-1.5-1.5v19l1.5-1.5h-19l1.5,1.5V238Zm-21.5-23h62v62h-62Z"/></clipPath><clipPath id="clip-path-33"><rect class="cls-1" x="456.67" y="237.99" width="19" height="19"/></clipPath><clipPath id="clip-path-35"><path class="cls-2" d="M432.67,213.49h-1.5v12h12v-12h-10.5Zm0,3h9l-1.5-1.5v9l1.5-1.5h-9l1.5,1.5v-9Zm-21.5-23h52v52h-52Z"/></clipPath><clipPath id="clip-path-36"><rect class="cls-1" x="432.67" y="214.99" width="9" height="9"/></clipPath><clipPath id="clip-path-38"><path class="cls-2" d="M461.67,213.49h-1.5v12h12v-12h-10.5Zm0,3h9l-1.5-1.5v9l1.5-1.5h-9l1.5,1.5v-9Zm-21.5-23h52v52h-52Z"/></clipPath><clipPath id="clip-path-39"><rect class="cls-1" x="461.67" y="214.99" width="9" height="9"/></clipPath><clipPath id="clip-path-41"><path class="cls-2" d="M432.67,241.49h-1.5v12h12v-12h-10.5Zm0,3h9l-1.5-1.5v9l1.5-1.5h-9l1.5,1.5v-9Zm-21.5-23h52v52h-52Z"/></clipPath><clipPath id="clip-path-42"><rect class="cls-1" x="432.67" y="242.99" width="9" height="9"/></clipPath><clipPath id="clip-path-44"><path class="cls-2" d="M461.67,241.49h-1.5v12h12v-12h-10.5Zm0,3h9l-1.5-1.5v9l1.5-1.5h-9l1.5,1.5v-9Zm-21.5-23h52v52h-52Z"/></clipPath><clipPath id="clip-path-45"><rect class="cls-1" x="461.67" y="242.99" width="9" height="9"/></clipPath></defs><title>EXPERIENTIAL ICONS </title><path class="cls-36" d="M194.06,88.57V77.14H110l0-25.31H90.69l-6.3,13.11a148.29,148.29,0,0,0-17.85,4.75V88.57Z"/><path class="cls-37" d="M195.56,90.07H65V68.61l1-.34a154.84,154.84,0,0,1,17.3-4.65l6.39-13.29h21.7l0,25.31h84.07ZM68,87.07H192.56V78.64H108.49l0-25.31H91.64l-6.22,13-.75.14A147.82,147.82,0,0,0,68,70.78Z"/><polygon class="cls-36" points="104.82 70.2 90.63 70.2 90.63 66.28 94.64 57.67 104.82 57.67 104.82 70.2"/><path class="cls-37" d="M106.32,71.7H89.13V65.95l4.56-9.78h12.63Zm-14.19-3h11.19V59.17H95.6l-3.47,7.44Z"/><path class="cls-37" d="M84.46,90a1.5,1.5,0,0,1-1.5-1.5V65.13a1.5,1.5,0,1,1,3,0V88.49A1.5,1.5,0,0,1,84.46,90Z"/><path class="cls-37" d="M110,90a1.5,1.5,0,0,1-1.5-1.5V75.84a1.5,1.5,0,1,1,3,0V88.49A1.5,1.5,0,0,1,110,90Z"/><circle class="cls-36" cx="87.89" cy="92.94" r="10.97"/><path class="cls-37" d="M87.89,105.4a12.47,12.47,0,1,1,12.47-12.47A12.48,12.48,0,0,1,87.89,105.4Zm0-21.93a9.47,9.47,0,1,0,9.47,9.47A9.48,9.48,0,0,0,87.89,83.47Z"/><circle class="cls-36" cx="177.45" cy="92.94" r="10.97"/><path class="cls-37" d="M177.45,105.4a12.47,12.47,0,1,1,12.47-12.47A12.48,12.48,0,0,1,177.45,105.4Zm0-21.93a9.47,9.47,0,1,0,9.47,9.47A9.48,9.48,0,0,0,177.45,83.47Z"/><circle class="cls-36" cx="87.74" cy="92.79" r="4.98"/><path class="cls-37" d="M87.74,99.27a6.48,6.48,0,1,1,6.48-6.48A6.49,6.49,0,0,1,87.74,99.27Zm0-10a3.48,3.48,0,1,0,3.48,3.48A3.48,3.48,0,0,0,87.74,89.31Z"/><circle class="cls-36" cx="177.3" cy="92.79" r="4.98"/><path class="cls-37" d="M177.3,99.27a6.48,6.48,0,1,1,6.48-6.48A6.49,6.49,0,0,1,177.3,99.27Zm0-10a3.48,3.48,0,1,0,3.48,3.48A3.48,3.48,0,0,0,177.3,89.31Z"/><path class="cls-38" d="M205.85,88.57H111.51V33.14h94.34Z"/><rect class="cls-38" x="125.47" y="46" width="66.28" height="29.64"/><rect class="cls-38" x="122.25" y="39.75" width="74" height="10.58"/></svg>