<svg xmlns="http://www.w3.org/2000/svg" xmlns:xlink="http://www.w3.org/1999/xlink" viewBox="0 0 276 137"><defs><clipPath id="clip-path"><path d="M677.5-279.79H676v84H784v-84H677.5Zm0,3h105l-1.5-1.5v81l1.5-1.5h-105l1.5,1.5v-81Zm-21.5-23H804v124H656Z" fill="none" clip-rule="evenodd"/></clipPath><clipPath id="clip-path-2"><rect x="677.5" y="-278.29" width="105" height="81" fill="none"/></clipPath><clipPath id="clip-path-4"><path d="M671.5-262.79h-2.24l.85-2.07,9.07-22,.38-.93H780.43l.38.93,9.07,22,.85,2.07H671.5Zm0-3h117l-1.39,2.07-9.07-22,1.39.93H680.57l1.39-.93-9.07,22Zm-22.24,23H810.74v-65H649.26Z" fill="none" clip-rule="evenodd"/></clipPath><clipPath id="clip-path-5"><polygon points="671.5 -264.29 788.5 -264.29 779.43 -286.29 680.57 -286.29 671.5 -264.29" fill="none" clip-rule="evenodd"/></clipPath><clipPath id="clip-path-7"><path d="M756.5-295.79H755v19h15v-19H756.5Zm0,3h12l-1.5-1.5v16l1.5-1.5h-12l1.5,1.5v-16Zm-21.5-23h55v59H735Z" fill="none" clip-rule="evenodd"/></clipPath><clipPath id="clip-path-8"><rect x="756.5" y="-294.29" width="12" height="16" fill="none"/></clipPath><clipPath id="clip-path-10"><path d="M690.5-229.79H689v34h24v-34H690.5Zm0,3h21l-1.5-1.5v31l1.5-1.5h-21l1.5,1.5v-31Zm-21.5-23h64v74H669Z" fill="none" clip-rule="evenodd"/></clipPath><clipPath id="clip-path-11"><rect x="690.5" y="-228.29" width="21" height="31" fill="none"/></clipPath><clipPath id="clip-path-13"><path d="M691.5-257.79H690v22h22v-22H691.5Zm0,3h19l-1.5-1.5v19l1.5-1.5h-19l1.5,1.5v-19Zm-21.5-23h62v62H670Z" fill="none" clip-rule="evenodd"/></clipPath><clipPath id="clip-path-14"><rect x="691.5" y="-256.29" width="19" height="19" fill="none"/></clipPath><clipPath id="clip-path-16"><path d="M696.5-252.79H695v12h12v-12H696.5Zm0,3h9l-1.5-1.5v9l1.5-1.5h-9l1.5,1.5v-9Zm-21.5-23h52v52H675Z" fill="none" clip-rule="evenodd"/></clipPath><clipPath id="clip-path-17"><rect x="696.5" y="-251.29" width="9" height="9" fill="none"/></clipPath><clipPath id="clip-path-19"><path d="M721.5-257.79H720v22h22v-22H721.5Zm0,3h19l-1.5-1.5v19l1.5-1.5h-19l1.5,1.5v-19Zm-21.5-23h62v62H700Z" fill="none" clip-rule="evenodd"/></clipPath><clipPath id="clip-path-20"><rect x="721.5" y="-256.29" width="19" height="19" fill="none"/></clipPath><clipPath id="clip-path-22"><path d="M750.5-257.79H749v22h22v-22H750.5Zm0,3h19l-1.5-1.5v19l1.5-1.5h-19l1.5,1.5v-19Zm-21.5-23h62v62H729Z" fill="none" clip-rule="evenodd"/></clipPath><clipPath id="clip-path-23"><rect x="750.5" y="-256.29" width="19" height="19" fill="none"/></clipPath><clipPath id="clip-path-25"><path d="M721.5-229.79H720v22h22v-22H721.5Zm0,3h19l-1.5-1.5v19l1.5-1.5h-19l1.5,1.5v-19Zm-21.5-23h62v62H700Z" fill="none" clip-rule="evenodd"/></clipPath><clipPath id="clip-path-26"><rect x="721.5" y="-228.29" width="19" height="19" fill="none"/></clipPath><clipPath id="clip-path-28"><path d="M750.5-229.79H749v22h22v-22H750.5Zm0,3h19l-1.5-1.5v19l1.5-1.5h-19l1.5,1.5v-19Zm-21.5-23h62v62H729Z" fill="none" clip-rule="evenodd"/></clipPath><clipPath id="clip-path-29"><rect x="750.5" y="-228.29" width="19" height="19" fill="none"/></clipPath><clipPath id="clip-path-31"><path d="M726.5-252.79H725v12h12v-12H726.5Zm0,3h9l-1.5-1.5v9l1.5-1.5h-9l1.5,1.5v-9Zm-21.5-23h52v52H705Z" fill="none" clip-rule="evenodd"/></clipPath><clipPath id="clip-path-32"><rect x="726.5" y="-251.29" width="9" height="9" fill="none"/></clipPath><clipPath id="clip-path-34"><path d="M755.5-252.79H754v12h12v-12H755.5Zm0,3h9l-1.5-1.5v9l1.5-1.5h-9l1.5,1.5v-9Zm-21.5-23h52v52H734Z" fill="none" clip-rule="evenodd"/></clipPath><clipPath id="clip-path-35"><rect x="755.5" y="-251.29" width="9" height="9" fill="none"/></clipPath><clipPath id="clip-path-37"><path d="M726.5-224.79H725v12h12v-12H726.5Zm0,3h9l-1.5-1.5v9l1.5-1.5h-9l1.5,1.5v-9Zm-21.5-23h52v52H705Z" fill="none" clip-rule="evenodd"/></clipPath><clipPath id="clip-path-38"><rect x="726.5" y="-223.29" width="9" height="9" fill="none"/></clipPath><clipPath id="clip-path-40"><path d="M755.5-224.79H754v12h12v-12H755.5Zm0,3h9l-1.5-1.5v9l1.5-1.5h-9l1.5,1.5v-9Zm-21.5-23h52v52H734Z" fill="none" clip-rule="evenodd"/></clipPath><clipPath id="clip-path-41"><rect x="755.5" y="-223.29" width="9" height="9" fill="none"/></clipPath><clipPath id="clip-path-43"><path d="M683.39,537.67h-1.5v84h108v-84H683.39Zm0,3h105l-1.5-1.5v81l1.5-1.5h-105l1.5,1.5v-81Zm-21.5-23h148v124h-148Z" fill="none" clip-rule="evenodd"/></clipPath><clipPath id="clip-path-44"><rect x="683.39" y="539.17" width="105" height="81" fill="none"/></clipPath><clipPath id="clip-path-46"><path d="M677.39,554.67h-2.24l.85-2.07,9.07-22,.38-.93H786.32l.38.93,9.07,22,.85,2.07H677.39Zm0-3h117L793,553.74l-9.07-22,1.39.93H686.46l1.39-.93-9.07,22Zm-22.24,23H816.63v-65H655.14Z" fill="none" clip-rule="evenodd"/></clipPath><clipPath id="clip-path-47"><polygon points="677.39 553.16 794.39 553.16 785.32 531.16 686.46 531.16 677.39 553.16" fill="none" clip-rule="evenodd"/></clipPath><clipPath id="clip-path-49"><path d="M762.39,521.67h-1.5v19h15v-19h-13.5Zm0,3h12l-1.5-1.5v16l1.5-1.5h-12l1.5,1.5v-16Zm-21.5-23h55v59h-55Z" fill="none" clip-rule="evenodd"/></clipPath><clipPath id="clip-path-50"><rect x="762.39" y="523.17" width="12" height="16" fill="none"/></clipPath><clipPath id="clip-path-52"><path d="M696.39,587.67h-1.5v34h24v-34h-22.5Zm0,3h21l-1.5-1.5v31l1.5-1.5h-21l1.5,1.5v-31Zm-21.5-23h64v74h-64Z" fill="none" clip-rule="evenodd"/></clipPath><clipPath id="clip-path-53"><rect x="696.39" y="589.17" width="21" height="31" fill="none"/></clipPath><clipPath id="clip-path-55"><path d="M697.39,559.67h-1.5v22h22v-22h-20.5Zm0,3h19l-1.5-1.5v19l1.5-1.5h-19l1.5,1.5v-19Zm-21.5-23h62v62h-62Z" fill="none" clip-rule="evenodd"/></clipPath><clipPath id="clip-path-56"><rect x="697.39" y="561.17" width="19" height="19" fill="none"/></clipPath><clipPath id="clip-path-58"><path d="M702.39,564.67h-1.5v12h12v-12h-10.5Zm0,3h9l-1.5-1.5v9l1.5-1.5h-9l1.5,1.5v-9Zm-21.5-23h52v52h-52Z" fill="none" clip-rule="evenodd"/></clipPath><clipPath id="clip-path-59"><rect x="702.39" y="566.17" width="9" height="9" fill="none"/></clipPath><clipPath id="clip-path-61"><path d="M727.39,559.67h-1.5v22h22v-22h-20.5Zm0,3h19l-1.5-1.5v19l1.5-1.5h-19l1.5,1.5v-19Zm-21.5-23h62v62h-62Z" fill="none" clip-rule="evenodd"/></clipPath><clipPath id="clip-path-62"><rect x="727.39" y="561.17" width="19" height="19" fill="none"/></clipPath><clipPath id="clip-path-64"><path d="M756.39,559.67h-1.5v22h22v-22h-20.5Zm0,3h19l-1.5-1.5v19l1.5-1.5h-19l1.5,1.5v-19Zm-21.5-23h62v62h-62Z" fill="none" clip-rule="evenodd"/></clipPath><clipPath id="clip-path-65"><rect x="756.39" y="561.17" width="19" height="19" fill="none"/></clipPath><clipPath id="clip-path-67"><path d="M727.39,587.67h-1.5v22h22v-22h-20.5Zm0,3h19l-1.5-1.5v19l1.5-1.5h-19l1.5,1.5v-19Zm-21.5-23h62v62h-62Z" fill="none" clip-rule="evenodd"/></clipPath><clipPath id="clip-path-68"><rect x="727.39" y="589.17" width="19" height="19" fill="none"/></clipPath><clipPath id="clip-path-70"><path d="M756.39,587.67h-1.5v22h22v-22h-20.5Zm0,3h19l-1.5-1.5v19l1.5-1.5h-19l1.5,1.5v-19Zm-21.5-23h62v62h-62Z" fill="none" clip-rule="evenodd"/></clipPath><clipPath id="clip-path-71"><rect x="756.39" y="589.17" width="19" height="19" fill="none"/></clipPath><clipPath id="clip-path-73"><path d="M732.39,564.67h-1.5v12h12v-12h-10.5Zm0,3h9l-1.5-1.5v9l1.5-1.5h-9l1.5,1.5v-9Zm-21.5-23h52v52h-52Z" fill="none" clip-rule="evenodd"/></clipPath><clipPath id="clip-path-74"><rect x="732.39" y="566.17" width="9" height="9" fill="none"/></clipPath><clipPath id="clip-path-76"><path d="M761.39,564.67h-1.5v12h12v-12h-10.5Zm0,3h9l-1.5-1.5v9l1.5-1.5h-9l1.5,1.5v-9Zm-21.5-23h52v52h-52Z" fill="none" clip-rule="evenodd"/></clipPath><clipPath id="clip-path-77"><rect x="761.39" y="566.17" width="9" height="9" fill="none"/></clipPath><clipPath id="clip-path-79"><path d="M732.39,592.67h-1.5v12h12v-12h-10.5Zm0,3h9l-1.5-1.5v9l1.5-1.5h-9l1.5,1.5v-9Zm-21.5-23h52v52h-52Z" fill="none" clip-rule="evenodd"/></clipPath><clipPath id="clip-path-80"><rect x="732.39" y="594.17" width="9" height="9" fill="none"/></clipPath><clipPath id="clip-path-82"><path d="M761.39,592.67h-1.5v12h12v-12h-10.5Zm0,3h9l-1.5-1.5v9l1.5-1.5h-9l1.5,1.5v-9Zm-21.5-23h52v52h-52Z" fill="none" clip-rule="evenodd"/></clipPath><clipPath id="clip-path-83"><rect x="761.39" y="594.17" width="9" height="9" fill="none"/></clipPath></defs><title>farmers market2</title><g id="Layer_1" data-name="Layer 1"><path d="M167.75,38.37c-1.75-4.43,1.81-10,1.81-10S176,30,177.7,34.45s-1.81,10-1.81,10S169.5,42.81,167.75,38.37Z" fill="#0f1f2d" stroke="#fff" stroke-miterlimit="10" stroke-width="3"/><path d="M111.24,29.81c2.48-4.07,9.06-4.58,9.06-4.58s2.55,6.08.07,10.15S111.31,40,111.31,40,108.76,33.88,111.24,29.81Z" fill="#0f1f2d" stroke="#fff" stroke-miterlimit="10" stroke-width="3"/><path d="M178.39,49.87a5.75,5.75,0,1,0-10.12-5.45c-2.86,5.3-9.25,6.94-11.63,11.36A10.6,10.6,0,0,0,175.3,65.84C177.68,61.41,175.43,55.35,178.39,49.87Z" fill="#62a744" stroke="#0f1f2d" stroke-miterlimit="10" stroke-width="3"/><path d="M183.64,34.13c-5.6-1.22-5.64,3.93-8.09,8.47" fill="#62a744" stroke="#0f1f2d" stroke-miterlimit="10" stroke-width="3"/><circle cx="156.63" cy="61.85" r="13.03" fill="#62a744" stroke="#0f1f2d" stroke-miterlimit="10" stroke-width="3"/><path d="M153.65,44.52a5.75,5.75,0,0,0-11.24-2.4c-1.26,5.89-6.93,9.25-8,14.17a10.6,10.6,0,0,0,20.73,4.42C156.21,55.79,152.35,50.61,153.65,44.52Z" fill="#62a744" stroke="#0f1f2d" stroke-miterlimit="10" stroke-width="3"/><path d="M154.28,28.64c-5.71.4-4.3,4.65-5.38,9.7" fill="#62a744" stroke="#0f1f2d" stroke-miterlimit="10" stroke-width="3"/><path d="M118.72,39.66a5.75,5.75,0,0,0-10.24,5.22c2.73,5.37.44,11.55,2.72,16a10.6,10.6,0,0,0,18.89-9.62C127.81,46.81,121.55,45.21,118.72,39.66Z" fill="#62a744" stroke="#0f1f2d" stroke-miterlimit="10" stroke-width="3"/><path d="M111,27.29c-4.19,3.91-2.21,6,.13,10.57" fill="#62a744" stroke="#0f1f2d" stroke-miterlimit="10" stroke-width="3"/><circle cx="104.95" cy="62.02" r="13.2" fill="#62a744" stroke="#0f1f2d" stroke-miterlimit="10" stroke-width="3"/><rect x="87.22" y="62.7" width="95.32" height="7.23" fill="#62a744" stroke="#0f1f2d" stroke-miterlimit="10" stroke-width="3"/><polygon points="169.66 119.75 100.1 119.75 91.28 70.13 178.47 70.13 169.66 119.75" fill="#62a744" stroke="#0f1f2d" stroke-miterlimit="10" stroke-width="3"/><rect x="109.01" y="78.73" width="8.58" height="33.52" fill="#62a744" stroke="#0f1f2d" stroke-miterlimit="10" stroke-width="3"/><rect x="151.26" y="78.73" width="8.58" height="33.52" fill="#62a744" stroke="#0f1f2d" stroke-miterlimit="10" stroke-width="3"/><rect x="130.04" y="78.73" width="8.58" height="33.52" fill="#62a744" stroke="#0f1f2d" stroke-miterlimit="10" stroke-width="3"/><rect x="130.04" y="21.79" width="8.58" height="48.35" fill="#62a744" stroke="#0f1f2d" stroke-miterlimit="10" stroke-width="3"/></g></svg>