<svg id="Layer_1" data-name="Layer 1" xmlns="http://www.w3.org/2000/svg" xmlns:xlink="http://www.w3.org/1999/xlink" viewBox="0 0 276 137"><defs><clipPath id="clip-path"><circle cx="138" cy="-89.5" r="50.5" fill="none"/></clipPath><clipPath id="clip-path-2"><circle cx="138" cy="-89.5" r="43.5" fill="none"/></clipPath><clipPath id="clip-path-3"><circle cx="428.78" cy="-89.5" r="50.5" fill="none"/></clipPath><clipPath id="clip-path-4"><circle cx="428.78" cy="-89.5" r="43.5" fill="none"/></clipPath><clipPath id="clip-path-5"><path d="M383.67,186.49h-1.5v84h108v-84H383.67Zm0,3h105l-1.5-1.5v81l1.5-1.5h-105l1.5,1.5V188Zm-21.5-23h148v124h-148Z" fill="none" clip-rule="evenodd"/></clipPath><clipPath id="clip-path-6"><rect x="383.67" y="187.99" width="105" height="81" fill="none"/></clipPath><clipPath id="clip-path-8"><path d="M377.67,203.49h-2.24l.85-2.07,9.07-22,.38-.93H486.6l.38.93,9.07,22,.85,2.07H377.67Zm0-3h117l-1.39,2.07-9.07-22,1.39.93H386.74l1.39-.93-9.07,22Zm-22.24,23H516.91v-65H355.43Z" fill="none" clip-rule="evenodd"/></clipPath><clipPath id="clip-path-9"><polygon points="377.67 201.99 494.67 201.99 485.6 179.99 386.74 179.99 377.67 201.99" fill="none" clip-rule="evenodd"/></clipPath><clipPath id="clip-path-11"><path d="M462.67,170.49h-1.5v19h15v-19h-13.5Zm0,3h12l-1.5-1.5v16l1.5-1.5h-12l1.5,1.5V172Zm-21.5-23h55v59h-55Z" fill="none" clip-rule="evenodd"/></clipPath><clipPath id="clip-path-12"><rect x="462.67" y="171.99" width="12" height="16" fill="none"/></clipPath><clipPath id="clip-path-14"><path d="M396.67,236.49h-1.5v34h24v-34h-22.5Zm0,3h21l-1.5-1.5v31l1.5-1.5h-21l1.5,1.5V238Zm-21.5-23h64v74h-64Z" fill="none" clip-rule="evenodd"/></clipPath><clipPath id="clip-path-15"><rect x="396.67" y="237.99" width="21" height="31" fill="none"/></clipPath><clipPath id="clip-path-17"><path d="M397.67,208.49h-1.5v22h22v-22h-20.5Zm0,3h19l-1.5-1.5v19l1.5-1.5h-19l1.5,1.5V210Zm-21.5-23h62v62h-62Z" fill="none" clip-rule="evenodd"/></clipPath><clipPath id="clip-path-18"><rect x="397.67" y="209.99" width="19" height="19" fill="none"/></clipPath><clipPath id="clip-path-20"><path d="M402.67,213.49h-1.5v12h12v-12h-10.5Zm0,3h9l-1.5-1.5v9l1.5-1.5h-9l1.5,1.5v-9Zm-21.5-23h52v52h-52Z" fill="none" clip-rule="evenodd"/></clipPath><clipPath id="clip-path-21"><rect x="402.67" y="214.99" width="9" height="9" fill="none"/></clipPath><clipPath id="clip-path-23"><path d="M427.67,208.49h-1.5v22h22v-22h-20.5Zm0,3h19l-1.5-1.5v19l1.5-1.5h-19l1.5,1.5V210Zm-21.5-23h62v62h-62Z" fill="none" clip-rule="evenodd"/></clipPath><clipPath id="clip-path-24"><rect x="427.67" y="209.99" width="19" height="19" fill="none"/></clipPath><clipPath id="clip-path-26"><path d="M456.67,208.49h-1.5v22h22v-22h-20.5Zm0,3h19l-1.5-1.5v19l1.5-1.5h-19l1.5,1.5V210Zm-21.5-23h62v62h-62Z" fill="none" clip-rule="evenodd"/></clipPath><clipPath id="clip-path-27"><rect x="456.67" y="209.99" width="19" height="19" fill="none"/></clipPath><clipPath id="clip-path-29"><path d="M427.67,236.49h-1.5v22h22v-22h-20.5Zm0,3h19l-1.5-1.5v19l1.5-1.5h-19l1.5,1.5V238Zm-21.5-23h62v62h-62Z" fill="none" clip-rule="evenodd"/></clipPath><clipPath id="clip-path-30"><rect x="427.67" y="237.99" width="19" height="19" fill="none"/></clipPath><clipPath id="clip-path-32"><path d="M456.67,236.49h-1.5v22h22v-22h-20.5Zm0,3h19l-1.5-1.5v19l1.5-1.5h-19l1.5,1.5V238Zm-21.5-23h62v62h-62Z" fill="none" clip-rule="evenodd"/></clipPath><clipPath id="clip-path-33"><rect x="456.67" y="237.99" width="19" height="19" fill="none"/></clipPath><clipPath id="clip-path-35"><path d="M432.67,213.49h-1.5v12h12v-12h-10.5Zm0,3h9l-1.5-1.5v9l1.5-1.5h-9l1.5,1.5v-9Zm-21.5-23h52v52h-52Z" fill="none" clip-rule="evenodd"/></clipPath><clipPath id="clip-path-36"><rect x="432.67" y="214.99" width="9" height="9" fill="none"/></clipPath><clipPath id="clip-path-38"><path d="M461.67,213.49h-1.5v12h12v-12h-10.5Zm0,3h9l-1.5-1.5v9l1.5-1.5h-9l1.5,1.5v-9Zm-21.5-23h52v52h-52Z" fill="none" clip-rule="evenodd"/></clipPath><clipPath id="clip-path-39"><rect x="461.67" y="214.99" width="9" height="9" fill="none"/></clipPath><clipPath id="clip-path-41"><path d="M432.67,241.49h-1.5v12h12v-12h-10.5Zm0,3h9l-1.5-1.5v9l1.5-1.5h-9l1.5,1.5v-9Zm-21.5-23h52v52h-52Z" fill="none" clip-rule="evenodd"/></clipPath><clipPath id="clip-path-42"><rect x="432.67" y="242.99" width="9" height="9" fill="none"/></clipPath><clipPath id="clip-path-44"><path d="M461.67,241.49h-1.5v12h12v-12h-10.5Zm0,3h9l-1.5-1.5v9l1.5-1.5h-9l1.5,1.5v-9Zm-21.5-23h52v52h-52Z" fill="none" clip-rule="evenodd"/></clipPath><clipPath id="clip-path-45"><rect x="461.67" y="242.99" width="9" height="9" fill="none"/></clipPath></defs><title>2</title><path d="M196.06,88.57V77.14H112l0-25.31H92.69l-6.3,13.11a148.29,148.29,0,0,0-17.85,4.75V88.57Z" fill="#4186c6"/><path d="M197.56,90.07H67V68.61l1-.34a154.84,154.84,0,0,1,17.3-4.65l6.39-13.29h21.7l0,25.31h84.07ZM70,87.07H194.56V78.64H110.49l0-25.31H93.64l-6.22,13-.75.14A147.82,147.82,0,0,0,70,70.78Z" fill="#0c1f2e"/><polygon points="106.82 70.2 92.63 70.2 92.63 66.28 96.64 57.67 106.82 57.67 106.82 70.2" fill="#4186c6"/><path d="M108.32,71.7H91.13V65.95l4.56-9.78h12.63Zm-14.19-3h11.19V59.17H97.6l-3.47,7.44Z" fill="#0c1f2e"/><path d="M86.46,90a1.5,1.5,0,0,1-1.5-1.5V65.13a1.5,1.5,0,1,1,3,0V88.49A1.5,1.5,0,0,1,86.46,90Z" fill="#0c1f2e"/><circle cx="89.89" cy="92.94" r="10.97" fill="#4186c6"/><path d="M89.89,105.4a12.47,12.47,0,1,1,12.47-12.47A12.48,12.48,0,0,1,89.89,105.4Zm0-21.93a9.47,9.47,0,1,0,9.47,9.47A9.48,9.48,0,0,0,89.89,83.47Z" fill="#0c1f2e"/><circle cx="177.45" cy="92.94" r="10.97" fill="#fff"/><path d="M177.45,80.47a12.46,12.46,0,1,0,12.47,12.46A12.48,12.48,0,0,0,177.45,80.47Zm0,21.93a9.46,9.46,0,1,1,9.47-9.47A9.48,9.48,0,0,1,177.45,102.4Z" fill="#0c1f2e"/><path d="M186.92,92.93a9.47,9.47,0,1,1-9.47-9.46A9.48,9.48,0,0,1,186.92,92.93Z" fill="#4186c6"/><circle cx="89.74" cy="92.79" r="4.98" fill="#4186c6"/><path d="M89.74,99.27a6.48,6.48,0,1,1,6.48-6.48A6.49,6.49,0,0,1,89.74,99.27Zm0-10a3.48,3.48,0,1,0,3.48,3.48A3.48,3.48,0,0,0,89.74,89.31Z" fill="#0c1f2e"/><circle cx="177.3" cy="92.79" r="4.98" fill="#fff"/><path d="M177.3,99.27a6.48,6.48,0,1,1,6.48-6.48A6.49,6.49,0,0,1,177.3,99.27Z" fill="#0c1f2e"/><circle cx="177.3" cy="92.79" r="3.48" fill="#4186c6"/><path d="M205.85,88.57H111.51V33.14h94.34Z" fill="#4186c6" stroke="#0c1f2e" stroke-miterlimit="10" stroke-width="3"/><rect x="125.47" y="46" width="66.28" height="29.64" fill="#4186c6" stroke="#0c1f2e" stroke-miterlimit="10" stroke-width="3"/><rect x="122.25" y="39.75" width="74" height="10.58" fill="#4186c6" stroke="#0c1f2e" stroke-miterlimit="10" stroke-width="3"/></svg>