<?xml version="1.0" encoding="utf-8"?>
<!-- Generator: Adobe Illustrator 18.1.1, SVG Export Plug-In . SVG Version: 6.00 Build 0)  -->
<svg version="1.1" id="Layer_1" xmlns="http://www.w3.org/2000/svg" xmlns:xlink="http://www.w3.org/1999/xlink" x="0px" y="0px"
	 viewBox="0 0 66 66" enable-background="new 0 0 66 66" xml:space="preserve">
<g>
	<defs>
		<circle id="SVGID_9_" cx="33" cy="33" r="31.4"/>
	</defs>
	<clipPath id="SVGID_2_">
		<use xlink:href="#SVGID_9_"  overflow="visible"/>
	</clipPath>
	
		<use xlink:href="#SVGID_9_"  overflow="visible" fill-rule="evenodd" clip-rule="evenodd" fill="none" stroke="#091F2F" stroke-width="3" stroke-miterlimit="10"/>
</g>
<g>
	<path fill="#091F2F" d="M51.7,46.7c-0.7,1-0.8,1.4-1.3,1.4c-0.5,0-0.7-0.3-1.4-1.4c-0.8-1.1-1.9-2.7-4.1-2.7
		c-2.3,0-3.4,1.6-4.1,2.7c-0.7,1-1,1.4-1.5,1.4c-0.5,0-0.8-0.3-1.5-1.4c-0.8-1.1-1.9-2.7-4.2-2.7c-2.3,0-3.4,1.6-4.2,2.7
		c-0.7,1-1,1.4-1.5,1.4s-0.8-0.3-1.5-1.4c-0.8-1.1-1.9-2.7-4.2-2.7s-3.4,1.6-4.2,2.7c-0.7,1-1,1.4-1.5,1.4c-0.5,0-0.7-0.3-1.4-1.4
		C14.3,45.6,13.3,44,11,44v3.2c0.6,0,0.7,0.3,1.4,1.4c0.8,1.1,1.9,2.7,4.1,2.7c2.3,0,3.4-1.6,4.1-2.7c0.7-1,1-1.4,1.5-1.4
		c0.5,0,0.8,0.3,1.5,1.4c0.8,1.1,1.9,2.7,4.2,2.7c2.3,0,3.4-1.6,4.2-2.7c0.7-1,1-1.4,1.5-1.4c0.5,0,0.8,0.3,1.5,1.4
		c0.8,1.1,1.9,2.7,4.2,2.7c2.3,0,3.4-1.6,4.2-2.7c0.7-1,1-1.4,1.5-1.4c0.5,0,0.8,0.3,1.5,1.4c0.8,1.1,1.9,2.7,4.2,2.7
		c2.3,0,3-1.6,3.8-2.7c0.4-0.6,0.6-1,0.6-1.2V44C54,44.2,52.4,45.7,51.7,46.7z"/>
	<path fill="#091F2F" d="M51.7,36.1c-0.7,1-0.8,1.4-1.3,1.4c-0.5,0-0.7-0.3-1.4-1.4c-0.8-1.1-1.9-2.7-4.1-2.7
		c-2.3,0-3.4,1.6-4.1,2.7c-0.7,1-1,1.4-1.5,1.4c-0.5,0-0.8-0.3-1.5-1.4c-0.8-1.1-1.9-2.7-4.2-2.7c-2.3,0-3.4,1.6-4.2,2.7
		c-0.7,1-1,1.4-1.5,1.4s-0.8-0.3-1.5-1.4c-0.8-1.1-1.9-2.7-4.2-2.7S18.7,35,18,36.1c-0.7,1-1,1.4-1.5,1.4c-0.5,0-0.7-0.3-1.4-1.4
		c-0.8-1.1-1.8-2.7-4.1-2.7v3.2c0.6,0,0.7,0.3,1.4,1.4c0.8,1.1,1.9,2.7,4.1,2.7c2.3,0,3.4-1.6,4.1-2.7c0.7-1,1-1.4,1.5-1.4
		c0.5,0,0.8,0.3,1.5,1.4c0.8,1.1,1.9,2.7,4.2,2.7c2.3,0,3.4-1.6,4.2-2.7c0.7-1,1-1.4,1.5-1.4c0.5,0,0.8,0.3,1.5,1.4
		c0.8,1.1,1.9,2.7,4.2,2.7c2.3,0,3.4-1.6,4.2-2.7c0.7-1,1-1.4,1.5-1.4c0.5,0,0.8,0.3,1.5,1.4c0.8,1.1,1.9,2.7,4.2,2.7
		c2.3,0,3-1.6,3.8-2.7c0.4-0.6,0.6-1,0.6-1.2v-3.4C54,33.6,52.4,35.1,51.7,36.1z"/>
</g>
<path fill="none" stroke="#091F2F" stroke-width="3" stroke-miterlimit="10" d="M32.5,35V20c0,0-0.7-5.5,4.3-5.5c0.1,0,0.1,0,0.2,0"
	/>
<path fill="none" stroke="#091F2F" stroke-width="3" stroke-miterlimit="10" d="M41.5,37V20c0,0-0.7-5.5,4.3-5.5c0.1,0,0.1,0,0.2,0"
	/>
<line fill="none" stroke="#091F2F" stroke-width="3" stroke-miterlimit="10" x1="32" y1="22.5" x2="41" y2="22.5"/>
<line fill="none" stroke="#091F2F" stroke-width="3" stroke-miterlimit="10" x1="32" y1="29.5" x2="41" y2="29.5"/>
<g>
</g>
</svg>
