<?xml version="1.0" encoding="utf-8"?>
<!-- Generator: Adobe Illustrator 18.1.1, SVG Export Plug-In . SVG Version: 6.00 Build 0)  -->
<svg version="1.1" id="Layer_1" xmlns="http://www.w3.org/2000/svg" xmlns:xlink="http://www.w3.org/1999/xlink" x="0px" y="0px"
	 viewBox="0 0 66 66" enable-background="new 0 0 66 66" xml:space="preserve">
<g>
	<defs>
		<circle id="SVGID_25_" cx="33" cy="33" r="31.4"/>
	</defs>
	<clipPath id="SVGID_2_">
		<use xlink:href="#SVGID_25_"  overflow="visible"/>
	</clipPath>
	
		<use xlink:href="#SVGID_25_"  overflow="visible" fill-rule="evenodd" clip-rule="evenodd" fill="none" stroke="#091F2F" stroke-width="3" stroke-miterlimit="10"/>
</g>
<g>
</g>
<path fill="#091F2F" d="M45.7,49.9c-0.2-2.3-5.3-4.2-11.6-4.2c-6.3,0-11.4,1.9-11.6,4.2H45.7z"/>
<path fill="#091F2F" d="M36.5,36.9c0,1.5-2.7,4.4-2.7,4.4s-2.7-2.9-2.7-4.4s1.2-2.7,2.7-2.7S36.5,35.4,36.5,36.9z"/>
<path fill="#091F2F" d="M36.5,27.2c0,1.5-2.7,4.4-2.7,4.4s-2.7-2.9-2.7-4.4c0-1.5,1.2-2.7,2.7-2.7S36.5,25.7,36.5,27.2z"/>
<path fill="#091F2F" d="M36.5,18.6c0,1.5-2.7,4.4-2.7,4.4s-2.7-2.9-2.7-4.4s1.2-2.7,2.7-2.7S36.5,17.1,36.5,18.6z"/>
<path fill="#091F2F" d="M42.5,41.7c-0.9,1.2-4.8,1.8-4.8,1.8s-0.3-4,0.6-5.1c0.9-1.2,2.6-1.4,3.8-0.5C43.2,38.9,43.5,40.6,42.5,41.7
	z"/>
<path fill="#091F2F" d="M47.9,34.9c-0.9,1.2-4.8,1.8-4.8,1.8s-0.3-4,0.6-5.1c0.9-1.2,2.6-1.4,3.8-0.5C48.6,32.1,48.8,33.8,47.9,34.9
	z"/>
<path fill="#091F2F" d="M53.2,28.2c-0.9,1.2-4.8,1.8-4.8,1.8s-0.3-4,0.6-5.1s2.6-1.4,3.8-0.5C53.9,25.3,54.1,27,53.2,28.2z"/>
<path fill="#091F2F" d="M24.5,41.7c0.9,1.2,4.8,1.8,4.8,1.8s0.3-4-0.6-5.1c-0.9-1.2-2.6-1.4-3.8-0.5S23.6,40.6,24.5,41.7z"/>
<path fill="#091F2F" d="M19.2,34.9c0.9,1.2,4.8,1.8,4.8,1.8s0.3-4-0.6-5.1c-0.9-1.2-2.6-1.4-3.8-0.5C18.5,32.1,18.3,33.8,19.2,34.9z
	"/>
<path fill="#091F2F" d="M13.9,28.2c0.9,1.2,4.8,1.8,4.8,1.8s0.3-4-0.6-5.1c-0.9-1.2-2.6-1.4-3.8-0.5C13.2,25.3,13,27,13.9,28.2z"/>
</svg>
