<svg id="Layer_1" data-name="Layer 1" xmlns="http://www.w3.org/2000/svg" viewBox="0 0 66 66"><title>black Spray</title><circle cx="33" cy="33" r="31.42" fill="#fff"/><circle cx="33" cy="33" r="31.42" fill="none" stroke="#091f2f" stroke-miterlimit="10" stroke-width="3"/><path d="M45.68,49.88c-.15-2.31-5.28-4.16-11.6-4.16s-11.45,1.85-11.61,4.16Z" fill="#091f2f"/><path d="M36.49,36.88c0,1.48-2.69,4.41-2.69,4.41s-2.69-2.93-2.69-4.41a2.69,2.69,0,1,1,5.38,0Z" fill="#091f2f"/><path d="M36.49,27.19c0,1.48-2.69,4.41-2.69,4.41s-2.69-2.93-2.69-4.41a2.69,2.69,0,0,1,5.38,0Z" fill="#091f2f"/><path d="M36.49,18.57c0,1.49-2.69,4.42-2.69,4.42s-2.69-2.93-2.69-4.42a2.69,2.69,0,0,1,5.38,0Z" fill="#091f2f"/><path d="M42.53,41.72c-.91,1.17-4.84,1.82-4.84,1.82s-.3-4,.61-5.14a2.69,2.69,0,0,1,4.23,3.32Z" fill="#091f2f"/><path d="M47.85,35C46.93,36.11,43,36.76,43,36.76s-.3-4,.61-5.13A2.69,2.69,0,1,1,47.85,35Z" fill="#091f2f"/><path d="M53.17,28.17C52.25,29.34,48.33,30,48.33,30s-.31-4,.61-5.13a2.69,2.69,0,0,1,4.23,3.32Z" fill="#091f2f"/><path d="M24.53,41.72c.92,1.17,4.84,1.82,4.84,1.82s.31-4-.61-5.14a2.69,2.69,0,0,0-4.23,3.32Z" fill="#091f2f"/><path d="M19.21,35c.92,1.16,4.84,1.81,4.84,1.81s.31-4-.61-5.13A2.69,2.69,0,1,0,19.21,35Z" fill="#091f2f"/><path d="M13.9,28.17c.91,1.17,4.84,1.81,4.84,1.81s.3-4-.61-5.13a2.69,2.69,0,0,0-4.23,3.32Z" fill="#091f2f"/></svg>